<?xml version="1.0" encoding="iso-8859-1"?>
<!-- Generator: Adobe Illustrator 18.0.0, SVG Export Plug-In . SVG Version: 6.00 Build 0)  -->
<!DOCTYPE svg PUBLIC "-//W3C//DTD SVG 1.1//EN" "http://www.w3.org/Graphics/SVG/1.1/DTD/svg11.dtd">
<svg xmlns="http://www.w3.org/2000/svg" xmlns:xlink="http://www.w3.org/1999/xlink" version="1.1" id="Capa_1" x="0px" y="0px" viewBox="0 0 449.432 449.432" style="enable-background:new 0 0 449.432 449.432;" xml:space="preserve" width="512px" height="512px">
<path d="M449.432,93.213c0-1.429-0.762-2.749-2-3.464l-111.145-64.17c-1.237-0.714-2.761-0.715-3.998-0.001L2.002,216.035  C0.764,216.748,0,218.069,0,219.498c0,0,0,136.73,0,136.73c0,1.429,0.763,2.75,2,3.464l33.489,19.334l-6.215,3.553  c-6.022-7.621-14.583-10.777-20.819-7.176c-3.672,2.119-5.89,6.298-6.086,11.464c-0.173,4.561,1.196,9.609,3.855,14.214  c2.658,4.605,6.346,8.315,10.382,10.446c2.445,1.29,4.934,1.938,7.282,1.938c2.044,0,3.98-0.491,5.688-1.478  c3.671-2.119,5.89-6.297,6.085-11.463c0.135-3.545-0.672-7.382-2.282-11.078l10.13-5.79l69.624,40.195  c0.619,0.357,1.31,0.536,2,0.536c0.689,0,1.38-0.179,1.998-0.535l35.624-20.54c0.118,7.732,3.157,13.975,8.635,17.136  c2.452,1.416,5.166,2.09,8,2.09c9.178-0.001,19.601-7.065,26.394-18.822c2.77-4.796,4.589-9.853,5.411-14.71  c1.39,2.207,3.213,4.014,5.446,5.302c2.417,1.396,5.116,2.091,7.979,2.091c3.373,0,6.975-0.965,10.612-2.886  c6.125-3.233,11.737-8.898,15.802-15.948c1.874-3.244,3.302-6.607,4.294-9.947l95.601-55.194c0.924,0.912,1.944,1.718,3.082,2.375  c2.418,1.396,5.118,2.092,7.983,2.092c3.37,0,6.97-0.963,10.604-2.881c6.122-3.23,11.736-8.894,15.807-15.944  c2.765-4.786,4.582-9.852,5.404-14.722c1.391,2.218,3.22,4.028,5.453,5.315c2.417,1.396,5.116,2.091,7.98,2.091  c3.373,0,6.975-0.964,10.612-2.885c6.124-3.232,11.739-8.897,15.812-15.95c5.39-9.344,7.182-19.756,4.975-27.674l18.79-10.834  c1.238-0.714,2.002-2.035,2.002-3.465V93.213L449.432,93.213z M25.577,405.061c-1.237,0.715-3.146,0.495-5.235-0.608  c-2.682-1.415-5.302-4.103-7.189-7.371c-1.887-3.269-2.903-6.881-2.789-9.911c0.09-2.359,0.852-4.123,2.092-4.839  c0.484-0.279,1.065-0.416,1.714-0.416c3.055,0,7.613,3.03,10.711,8.396c1.887,3.269,2.903,6.881,2.788,9.911  C27.579,402.581,26.816,404.345,25.577,405.061z M441.432,206.13l-98.511,56.807v-14.755l98.511-56.807V206.13z M323.73,295.496  v-46.072l11.19-6.461v46.08L323.73,295.496z M119.134,413.464v-12.259l100.646-58.031v12.258L119.134,413.464z M330.056,164.355  l-6.325,12.477v-8.83L330.056,164.355z M315.73,192.612l-11.189,22.072v-35.617l11.189-6.452V192.612z M296.541,230.464  l-11.19,22.073v-62.406l11.19-6.452V230.464z M277.351,260.838l-11.19-9.148v-50.495l11.19-6.452V260.838z M258.16,245.151  l-11.189-9.147v-23.744l11.189-6.452V245.151z M238.971,229.465l-9.032-7.383l9.032-5.208V229.465z M219.78,309.951l-100.646,58.03  v-14.755l100.646-58.032V309.951z M30.244,282.534l56.652,32.705v14.753l-56.652-32.704V282.534z M22.244,292.669L8,284.446v-14.753  l14.244,8.223V292.669z M94.896,319.857l16.237,9.374v14.753l-16.237-9.374V319.857z M219.78,285.961l-100.646,58.031v-14.756  l100.646-58.031V285.961z M219.78,261.971l-100.646,58.03v-14.755l100.646-58.032V261.971z M111.134,319.993l-16.237-9.374v-14.752  l16.237,9.374V319.993z M86.896,306.001l-56.652-32.704v-14.752l56.652,32.705V306.001z M22.244,268.678L8,260.455v-14.752  l14.244,8.223V268.678z M8,293.682l14.244,8.223v14.752L8,308.435V293.682z M30.244,306.524l56.652,32.705v14.752l-56.652-32.704  V306.524z M94.896,343.847l16.237,9.374v14.752l-16.237-9.374V343.847z M119.134,377.215l100.646-58.031v14.756l-100.646,58.03  V377.215z M227.78,230.649l11.19,9.148v49.326l-11.19,6.461V230.649z M246.971,246.336l11.189,9.147v22.561l-11.189,6.46V246.336z   M266.16,262.022l8.176,6.683l-8.176,4.72V262.022z M296.541,248.155v7.73l-5.54,3.199L296.541,248.155z M304.541,232.375  l11.189-22.072v34.503l-11.189,6.46V232.375z M323.73,194.523l11.19-22.074v61.278l-11.19,6.461V194.523z M338.868,150.04  L235.727,90.495l49.277-28.415l103.143,59.547L338.868,150.04z M330.863,154.655l-49.567,28.579l-103.139-59.543l49.565-28.581  L330.863,154.655z M273.291,187.85l-50,28.829l-103.136-59.543l49.996-28.83L273.291,187.85z M215.286,221.295l-49.445,28.509  L62.708,190.264l49.443-28.511L215.286,221.295z M219.78,227.938v10.043l-100.646,58.031V285.97L219.78,227.938z M111.134,296.004  L8,236.466v-10.039l103.134,59.542V296.004z M8,317.672l14.244,8.223v14.753L8,332.425V317.672z M30.244,330.513l56.652,32.705  v14.753l-56.652-32.704V330.513z M94.896,367.836l16.237,9.374v14.753l-16.237-9.374V367.836z M111.134,401.2v12.26l-16.237-9.374  v-12.26L111.134,401.2z M227.78,304.821l11.19-6.461v46.008l-11.19,6.452V304.821z M246.971,293.741l11.189-6.46v46.022  l-11.189,6.452V293.741z M266.16,282.662l11.19-6.461v46.036l-11.19,6.452V282.662z M285.351,271.583l11.19-6.461v46.051  l-11.19,6.452V271.583z M304.541,260.504l11.189-6.46v46.066l-11.189,6.452V260.504z M441.432,182.141l-98.511,56.807v-14.756  l98.511-56.807V182.141z M441.432,158.151l-98.511,56.807v-14.756l98.511-56.807V158.151z M441.432,134.16l-98.511,56.807v-14.755  l98.511-56.807V134.16z M441.432,110.171l-98.511,56.807v-10.042l98.511-56.8V110.171z M334.286,33.661l103.142,59.55l-41.277,23.8  L293.008,57.464L334.286,33.661z M54.703,194.879l103.133,59.541l-42.702,24.621l-103.131-59.54L54.703,194.879z M8,341.662  l14.244,8.223v12.258L8,353.919V341.662z M30.244,366.761v-12.258l25.03,14.449c-0.946-0.219-1.972-0.107-2.882,0.413l-8.862,5.065  L30.244,366.761z M56.362,376.311c1.918-1.096,2.584-3.54,1.487-5.458c-0.154-0.27-0.341-0.508-0.543-0.727l29.59,17.082v12.259  L51.55,379.061L56.362,376.311z M188.856,399.714c-6.424,11.121-17.171,17.44-23.467,13.806c-3.82-2.205-5.421-8.006-4.258-15.037  l32.312-18.631C194.413,385.494,192.78,392.921,188.856,399.714z M234.105,373.567c-3.323,5.763-7.801,10.334-12.609,12.873  c-2.435,1.287-7.082,3.12-10.855,0.941c-3.806-2.198-5.412-7.977-4.274-14.98l32.345-18.65  C239.661,359.383,238.021,366.79,234.105,373.567z M245.936,349.586l89.454-51.578c0.077,2.755,0.538,5.309,1.34,7.604  l-89.788,51.838C246.977,354.658,246.649,352.004,245.936,349.586z M371.477,294.065c-3.327,5.763-7.807,10.334-12.612,12.87  c-2.435,1.284-7.081,3.112-10.854,0.937c-3.732-2.155-5.355-7.804-4.32-14.65l32.421-18.694  C376.958,280.137,375.309,287.431,371.477,294.065z M416.736,267.915c-3.328,5.764-7.809,10.336-12.618,12.875  c-2.436,1.286-7.088,3.119-10.859,0.938c-3.718-2.143-5.343-7.771-4.324-14.595l32.441-18.705  C422.203,254.027,420.552,261.301,416.736,267.915z M342.921,284.431v-12.26l98.511-56.807v12.267L342.921,284.431z" fill="#ffffff"/>
<g>
</g>
<g>
</g>
<g>
</g>
<g>
</g>
<g>
</g>
<g>
</g>
<g>
</g>
<g>
</g>
<g>
</g>
<g>
</g>
<g>
</g>
<g>
</g>
<g>
</g>
<g>
</g>
<g>
</g>
</svg>
